# File created by Blade
# Date/Time:  Tue Apr 07 21:33:03 2015
# Frame Rate: 120.000 fps
#------------------------------------------------------
:FULLY-SPECIFIED
:DEGREES
553
root 37.743543 32.009509 -20.167554 19.734988 -63.615679 -5.274669
Spine -11.622928 -5.896451 4.911535
Head 13.389027 -2.085245 0.349475
LeftShoulder -17.415747 46.244406 5.416911
LeftArm 52.392457 14.530192 -75.944637
LeftForeArm -9.224301 -0.000000 16.474159
LeftHand 7.511429 0.000000 -8.556812
LeftHandThumb1 -26.253704 0.000000 33.147579
RightShoulder -4.053239 -10.069376 -16.112952
RightArm 14.667019 -17.419442 86.353418
RightForeArm 7.931662 -0.000000 15.997167
RightHand 6.142455 -0.000000 7.414230
RightHandThumb1 -24.326973 -0.000000 -32.862282
LeftUpLeg -17.395192 -5.706186 2.167298
LeftLeg 25.895388 -0.000000 -0.000000
LeftFoot -12.998069 6.100034 -20.395766
LeftToeBase -20.209356 -0.000000 0.000000
RightUpLeg -14.648601 -0.930121 7.718069
RightLeg 5.619801 -0.000000 -0.000000
RightFoot -11.479866 -10.756342 15.892577
RightToeBase -3.840759 -0.000000 0.000000
554
root 37.757021 32.007470 -20.146487 19.844525 -63.528035 -5.417504
Spine -11.582435 -5.977704 4.976976
Head 13.296186 -2.088897 0.438327
LeftShoulder -17.356003 46.160723 5.488054
LeftArm 52.376541 14.659034 -75.913169
LeftForeArm -9.112686 -0.000000 16.461517
LeftHand 7.535252 -0.000000 -8.694169
LeftHandThumb1 -26.253704 0.000000 33.147579
RightShoulder -4.050775 -10.031035 -16.146049
RightArm 14.657662 -17.367594 86.359343
RightForeArm 7.889245 0.000000 16.215783
RightHand 6.161344 -0.000000 7.325331
RightHandThumb1 -24.326973 -0.000000 -32.862282
LeftUpLeg -17.228319 -5.628625 2.220911
LeftLeg 25.550521 -0.000000 -0.000000
LeftFoot -13.010339 5.912691 -20.379357
LeftToeBase -20.258571 -0.000000 0.000000
RightUpLeg -14.781337 -0.829374 7.740820
RightLeg 5.902611 -0.000000 -0.000000
RightFoot -11.506681 -10.990133 15.724489
RightToeBase -4.183168 -0.000000 0.000000
555
root 37.769428 32.006506 -20.128960 19.989397 -63.447339 -5.576381
Spine -11.564696 -6.060860 5.032233
Head 13.202303 -2.111033 0.530627
LeftShoulder -17.336122 46.120287 5.536349
LeftArm 52.396920 14.760885 -75.898559
LeftForeArm -9.010669 -0.000000 16.455938
LeftHand 7.550041 0.000000 -8.785579
LeftHandThumb1 -26.253704 0.000000 33.147579
RightShoulder -4.064756 -9.977621 -16.159808
RightArm 14.668595 -17.346554 86.359412
RightForeArm 7.932813 -0.000000 16.393810
RightHand 6.259375 -0.000000 7.369289
RightHandThumb1 -24.326973 -0.000000 -32.862282
LeftUpLeg -17.095931 -5.496087 2.299030
LeftLeg 25.245972 -0.000000 -0.000000
LeftFoot -12.970653 5.598563 -20.340623
LeftToeBase -20.285903 -0.000000 0.000000
RightUpLeg -14.941608 -0.684249 7.771064
RightLeg 6.195390 -0.000000 -0.000000
RightFoot -11.539979 -11.266009 15.572397
RightToeBase -4.332908 -0.000000 0.000000
556
root 37.783402 32.004913 -20.114089 20.230085 -63.356905 -5.826465
Spine -11.550204 -6.106195 5.138111
Head 13.078858 -2.168359 0.584759
LeftShoulder -17.274222 46.087556 5.600252
LeftArm 52.449090 14.926254 -75.761148
LeftForeArm -9.044020 -0.000000 16.492762
LeftHand 7.506403 -0.000000 -8.786857
LeftHandThumb1 -26.253704 0.000000 33.147579
RightShoulder -4.103422 -9.957235 -16.203931
RightArm 14.676684 -17.266258 86.410055
RightForeArm 7.838825 0.000000 16.610578
RightHand 6.166341 0.000000 7.174381
RightHandThumb1 -24.326973 -0.000000 -32.862282
LeftUpLeg -17.012297 -5.260322 2.423631
LeftLeg 25.000754 -0.000000 -0.000000
LeftFoot -12.886606 5.167642 -20.149476
LeftToeBase -20.418895 -0.000000 0.000000
RightUpLeg -15.098370 -0.441550 7.823744
RightLeg 6.438337 -0.000000 -0.000000
RightFoot -11.579964 -11.605140 15.551093
RightToeBase -4.437707 -0.000000 0.000000
557
root 37.803552 32.004770 -20.097233 20.447267 -63.276704 -6.011648
Spine -11.556877 -6.191962 5.227009
Head 12.948763 -2.206253 0.632646
LeftShoulder -17.302205 46.077110 5.589151
LeftArm 52.539873 15.143254 -75.516144
LeftForeArm -9.223557 -0.000000 16.579894
LeftHand 7.464915 -0.000000 -8.627592
LeftHandThumb1 -26.253704 0.000000 33.147579
RightShoulder -4.133180 -9.905171 -16.240943
RightArm 14.722112 -17.219629 86.440920
RightForeArm 7.877906 0.000000 16.780361
RightHand 6.243275 -0.000000 7.149676
RightHandThumb1 -24.326973 -0.000000 -32.862282
LeftUpLeg -16.975917 -5.013355 2.509960
LeftLeg 24.778959 -0.000000 -0.000000
LeftFoot -12.730836 4.744504 -19.997191
LeftToeBase -20.568882 -0.000000 0.000000
RightUpLeg -15.316888 -0.202416 7.844240
RightLeg 6.711810 -0.000000 -0.000000
RightFoot -11.635154 -11.942834 15.545719
RightToeBase -4.613374 -0.000000 0.000000
558
root 37.825012 32.004042 -20.079111 20.650618 -63.201625 -6.190006
Spine -11.552767 -6.257138 5.315724
Head 12.811040 -2.190290 0.684878
LeftShoulder -17.250414 46.016428 5.647005
LeftArm 52.541223 15.203651 -75.568971
LeftForeArm -8.995328 0.000000 16.569085
LeftHand 7.293880 -0.000000 -8.227209
LeftHandThumb1 -26.253704 0.000000 33.147579
RightShoulder -4.156258 -9.837359 -16.304256
RightArm 14.726760 -17.197915 86.475916
RightForeArm 7.899579 0.000000 17.000716
RightHand 6.251273 -0.000000 7.010638
RightHandThumb1 -24.326973 -0.000000 -32.862282
LeftUpLeg -16.886592 -4.844144 2.588509
LeftLeg 24.464665 -0.000000 -0.000000
LeftFoot -12.651984 4.406611 -19.996979
LeftToeBase -20.675073 -0.000000 0.000000
RightUpLeg -15.597268 -0.039319 7.875030
RightLeg 7.135406 -0.000000 -0.000000
RightFoot -11.728064 -12.217806 15.473540
RightToeBase -4.674601 -0.000000 0.000000
559
root 37.857632 32.006586 -20.047464 20.532633 -63.247535 -5.998131
Spine -11.542277 -6.303096 5.201263
Head 12.671115 -2.189113 0.724707
LeftShoulder -17.242893 45.962579 5.643860
LeftArm 52.556596 15.249467 -75.558874
LeftForeArm -8.892114 -0.000000 16.586906
LeftHand 7.260498 -0.000000 -8.174070
LeftHandThumb1 -26.253704 0.000000 33.147579
RightShoulder -4.134944 -9.760274 -16.326705
RightArm 14.759909 -17.198586 86.460716
RightForeArm 8.000086 -0.000000 17.183088
RightHand 6.292067 -0.000000 6.956415
RightHandThumb1 -24.326973 -0.000000 -32.862282
LeftUpLeg -16.558395 -5.280442 2.544141
LeftLeg 23.645112 -0.000000 -0.000000
LeftFoot -12.609028 4.355833 -20.479421
LeftToeBase -20.574109 -0.000000 0.000000
RightUpLeg -15.964897 0.020265 7.719635
RightLeg 7.696712 -0.000000 -0.000000
RightFoot -11.882316 -12.347566 15.467289
RightToeBase -4.593606 -0.000000 0.000000
560
root 37.886059 32.006668 -20.025443 20.621007 -63.235309 -6.028253
Spine -11.523897 -6.350820 5.201606
Head 12.500375 -2.177576 0.765583
LeftShoulder -17.255819 45.930364 5.627018
LeftArm 52.646648 15.328904 -75.475183
LeftForeArm -8.865978 -0.000000 16.590059
LeftHand 7.246538 -0.000000 -8.055107
LeftHandThumb1 -26.253704 0.000000 33.147579
RightShoulder -4.136732 -9.657796 -16.370352
RightArm 14.743197 -17.092252 86.529623
RightForeArm 8.017690 -0.000000 17.402620
RightHand 6.395520 -0.000000 6.867520
RightHandThumb1 -24.326973 -0.000000 -32.862282
LeftUpLeg -16.338335 -5.419986 2.584522
LeftLeg 23.024114 -0.000000 -0.000000
LeftFoot -12.568646 4.190738 -20.534337
LeftToeBase -20.571290 -0.000000 0.000000
RightUpLeg -16.292306 0.262209 7.646282
RightLeg 8.159719 -0.000000 -0.000000
RightFoot -11.997062 -12.651012 15.447885
RightToeBase -4.756288 -0.000000 0.000000
561
root 37.913951 32.006335 -20.008980 20.691849 -63.189593 -6.090833
Spine -11.447240 -6.433435 5.199481
Head 12.306892 -2.247160 0.820587
LeftShoulder -17.189746 45.879643 5.684703
LeftArm 52.691713 15.451755 -75.305087
LeftForeArm -8.991579 -0.000000 16.675953
LeftHand 7.190174 -0.000000 -7.916214
LeftHandThumb1 -26.253704 0.000000 33.147579
RightShoulder -4.110248 -9.619407 -16.384860
RightArm 14.803190 -17.052048 86.534870
RightForeArm 7.963930 -0.000000 17.656913
RightHand 6.224496 -0.000000 6.922988
RightHandThumb1 -24.326973 -0.000000 -32.862282
LeftUpLeg -16.155521 -5.441528 2.627860
LeftLeg 22.570918 -0.000000 -0.000000
LeftFoot -12.501222 3.972866 -20.486391
LeftToeBase -20.537709 -0.000000 0.000000
RightUpLeg -16.452225 0.685067 7.544147
RightLeg 8.367626 -0.000000 -0.000000
RightFoot -12.065095 -13.100937 15.413889
RightToeBase -4.853176 -0.000000 0.000000
562
root 37.945819 32.005854 -19.987395 20.693547 -63.184334 -6.070096
Spine -11.357799 -6.495885 5.156293
Head 12.106323 -2.181169 0.879005
LeftShoulder -17.194702 45.840128 5.690759
LeftArm 52.819105 15.566379 -75.145472
LeftForeArm -9.004712 -0.000000 16.673011
LeftHand 7.187170 -0.000000 -7.876433
LeftHandThumb1 -26.253704 0.000000 33.147579
RightShoulder -4.096744 -9.468927 -16.413121
RightArm 14.784171 -17.033445 86.567724
RightForeArm 8.049695 -0.000000 17.851145
RightHand 6.381250 -0.000000 6.735849
RightHandThumb1 -24.326973 -0.000000 -32.862282
LeftUpLeg -15.942456 -5.455853 2.594290
LeftLeg 22.036734 -0.000000 -0.000000
LeftFoot -12.442230 3.867863 -20.402936
LeftToeBase -20.517476 -0.000000 0.000000
RightUpLeg -16.664718 1.117438 7.392521
RightLeg 8.668804 -0.000000 -0.000000
RightFoot -12.109644 -13.600845 15.370555
RightToeBase -5.239037 -0.000000 0.000000
